<?xml version="1.0" encoding="utf-8"?>
<!-- Generator: Adobe Illustrator 24.0.2, SVG Export Plug-In . SVG Version: 6.00 Build 0)  -->
<svg version="1.1" id="Layer_1" xmlns="http://www.w3.org/2000/svg" xmlns:xlink="http://www.w3.org/1999/xlink" x="0px" y="0px"
	 viewBox="0 0 1920 521" style="enable-background:new 0 0 1920 521;" xml:space="preserve">
<style type="text/css">
	.st0{fill:#25D366;}
	.st1{fill-rule:evenodd;clip-rule:evenodd;fill:#FFFFFF;}
	.st2{fill:#FFFFFF;}
</style>
<g>
	<g>
		<path class="st0" d="M264.79,496.27L264.79,496.27C131.27,496.27,23,388,23,254.48l0,0C23,120.97,131.27,12.69,264.79,12.69l0,0
			c133.52,0,241.79,108.27,241.79,241.79l0,0C506.58,388,398.31,496.27,264.79,496.27z"/>
		<g id="WA_Logo">
			<g>
				<path class="st1" d="M377.9,141.91c-29.98-30.03-69.93-46.57-112.43-46.62c-87.58,0-158.9,71.28-158.9,158.9
					c0,28,7.3,55.37,21.23,79.45L105.26,416l84.24-22.1c23.21,12.67,49.32,19.34,75.92,19.34h0.05l0,0
					c87.58,0,158.86-71.28,158.9-158.9C424.42,211.88,407.93,171.94,377.9,141.91z M265.51,386.4h-0.05
					c-23.7,0-46.96-6.38-67.22-18.42l-4.84-2.85l-50,13.11l13.35-48.74l-3.14-4.98c-13.2-21.04-20.21-45.31-20.21-70.31
					c0.05-72.83,59.29-132.07,132.16-132.07c35.3,0,68.43,13.78,93.38,38.73s38.69,58.17,38.64,93.43
					C397.58,327.17,338.29,386.4,265.51,386.4z"/>
			</g>
		</g>
	</g>
	<path class="st2" d="M259.93,211.06c-2.95,1.05-5.26,2.77-6.98,5.17c-1.72,2.41-2.56,5.05-2.56,7.94c0,2.64,0.77,5.1,2.34,7.38
		c1.55,2.25,3.96,4.09,7.2,5.48V211.06z"/>
	<path class="st2" d="M283.62,275.8c0-3.33-1.01-6.23-3-8.63c-1.97-2.43-5.23-4.27-9.76-5.58v29.37c3.77-0.82,6.84-2.61,9.19-5.37
		C282.44,282.82,283.62,279.56,283.62,275.8z"/>
	<path class="st2" d="M264.79,337.88c46.23,0,83.83-37.42,83.83-83.4c0-45.99-37.61-83.4-83.83-83.4
		c-46.23,0-83.84,37.41-83.84,83.4C180.96,300.47,218.56,337.88,264.79,337.88z"/>
</g>
<g>
	<path class="st0" d="M563.04,63.12l29.5,110.51l36.31-110.51h35.4l36.31,110.51l29.5-110.51h46.52l-51.06,171.1h-45.39
		l-33.58-99.17l-33.58,99.17h-45.38l-51.06-171.1H563.04z"/>
	<path class="st0" d="M790.65,45.87h41.07v86.69c5.6-6.81,11.27-11.38,17.02-13.73c5.75-2.34,12.48-3.52,20.2-3.52
		c14.67,0,25.76,4.05,33.24,12.14c7.49,8.09,11.23,19.03,11.23,32.79v73.98h-41.07v-58.77c0-5.9-0.45-10.67-1.36-14.3
		s-2.42-6.43-4.54-8.4c-3.63-3.18-8.02-4.77-13.16-4.77c-6.96,0-12.29,2.08-16,6.24c-3.71,4.16-5.56,10.1-5.56,17.81v62.18h-41.07
		V45.87z"/>
	<path class="st0" d="M1031.18,117.8h41.3v116.41h-41.3v-12.93c-8.78,11.04-20.65,16.57-35.63,16.57c-8.47,0-16.26-1.55-23.37-4.65
		c-7.11-3.1-13.31-7.45-18.61-13.05c-5.3-5.6-9.42-12.18-12.37-19.74c-2.95-7.56-4.43-15.81-4.43-24.73
		c0-8.32,1.44-16.23,4.31-23.71c2.87-7.49,6.88-14.03,12.03-19.63c5.14-5.6,11.27-10.02,18.38-13.28c7.11-3.25,14.98-4.88,23.6-4.88
		c14.52,0,26.55,5.07,36.08,15.2V117.8z M979.44,175.67c0,3.78,0.68,7.3,2.04,10.55c1.36,3.25,3.21,6.09,5.56,8.51
		c2.34,2.42,5.14,4.31,8.4,5.67c3.25,1.36,6.77,2.04,10.55,2.04c3.63,0,7.07-0.68,10.33-2.04c3.25-1.36,6.05-3.25,8.4-5.67
		c2.34-2.42,4.23-5.22,5.67-8.4c1.44-3.18,2.16-6.58,2.16-10.21s-0.72-7.07-2.16-10.33c-1.44-3.25-3.33-6.09-5.67-8.51
		c-2.35-2.42-5.14-4.31-8.4-5.67c-3.25-1.36-6.69-2.04-10.33-2.04c-3.78,0-7.3,0.68-10.55,2.04c-3.26,1.36-6.05,3.25-8.4,5.67
		c-2.35,2.42-4.2,5.18-5.56,8.28C980.12,168.67,979.44,172.04,979.44,175.67z"/>
	<path class="st0" d="M1146.23,152.07v82.15h-41.07v-82.15h-13.62V117.8h13.62V82.86h41.07v34.95h23.37v34.27H1146.23z"/>
	<path class="st0" d="M1263.32,147.76c-7.57-3.93-14.98-5.9-22.24-5.9c-3.78,0-6.85,0.76-9.19,2.27c-2.35,1.51-3.52,3.56-3.52,6.13
		c0,1.36,0.19,2.46,0.57,3.29c0.38,0.83,1.21,1.63,2.5,2.38c1.28,0.76,3.18,1.44,5.67,2.04c2.5,0.61,5.79,1.36,9.87,2.27
		c11.35,2.27,19.82,6.32,25.42,12.14c5.59,5.83,8.4,13.27,8.4,22.35c0,6.81-1.36,12.93-4.08,18.38
		c-2.72,5.45-6.51,10.02-11.35,13.73c-4.84,3.71-10.67,6.58-17.47,8.62s-14.3,3.06-22.47,3.06c-15.74,0-31.24-4.46-46.52-13.39
		l14.98-29.05c11.5,7.87,22.39,11.8,32.68,11.8c3.78,0,6.88-0.83,9.3-2.5c2.42-1.66,3.63-3.78,3.63-6.35c0-1.51-0.19-2.76-0.57-3.74
		c-0.38-0.98-1.17-1.89-2.38-2.72c-1.21-0.83-2.99-1.59-5.33-2.27c-2.35-0.68-5.41-1.4-9.19-2.16c-12.71-2.57-21.6-6.39-26.66-11.46
		c-5.07-5.07-7.6-12.06-7.6-20.99c0-6.5,1.21-12.37,3.63-17.59c2.42-5.22,5.9-9.64,10.44-13.28c4.54-3.63,10.02-6.43,16.45-8.4
		c6.43-1.96,13.58-2.95,21.44-2.95c12.86,0,25.34,2.5,37.44,7.49L1263.32,147.76z"/>
	<path class="st0" d="M1410.36,204.49h-63.54l-10.21,29.73h-47.43l65.13-171.1h48.56l65.13,171.1h-47.43L1410.36,204.49z
		 M1398.56,170.68l-19.97-56.96l-19.97,56.96H1398.56z"/>
	<path class="st0" d="M1527.22,292.31h-41.07V117.8h41.07v12.94c8.77-11.04,20.72-16.57,35.85-16.57c8.32,0,16.07,1.63,23.26,4.88
		c7.18,3.25,13.42,7.68,18.72,13.28c5.29,5.6,9.42,12.18,12.37,19.74c2.95,7.57,4.42,15.66,4.42,24.28c0,8.62-1.47,16.64-4.42,24.05
		c-2.95,7.41-7.04,13.92-12.25,19.52c-5.22,5.6-11.39,9.98-18.5,13.16c-7.11,3.18-14.83,4.77-23.15,4.77
		c-14.52,0-26.63-4.99-36.31-14.98V292.31z M1578.96,176.35c0-3.63-0.65-7.07-1.93-10.33c-1.29-3.25-3.14-6.09-5.56-8.51
		c-2.42-2.42-5.26-4.35-8.51-5.79c-3.25-1.44-6.77-2.16-10.55-2.16c-3.63,0-7.03,0.68-10.21,2.04c-3.18,1.36-5.94,3.25-8.28,5.67
		c-2.35,2.42-4.24,5.26-5.67,8.51c-1.44,3.25-2.16,6.69-2.16,10.33s0.68,7.03,2.04,10.21c1.36,3.18,3.25,5.94,5.67,8.28
		c2.42,2.35,5.25,4.24,8.51,5.67c3.25,1.44,6.69,2.16,10.33,2.16s7.03-0.68,10.21-2.04c3.18-1.36,5.94-3.25,8.28-5.67
		c2.34-2.42,4.23-5.22,5.67-8.4C1578.24,183.16,1578.96,179.83,1578.96,176.35z"/>
	<path class="st0" d="M1686.29,292.31h-41.07V117.8h41.07v12.94c8.77-11.04,20.72-16.57,35.85-16.57c8.32,0,16.07,1.63,23.26,4.88
		c7.18,3.25,13.42,7.68,18.72,13.28c5.29,5.6,9.42,12.18,12.37,19.74c2.95,7.57,4.42,15.66,4.42,24.28c0,8.62-1.47,16.64-4.42,24.05
		c-2.95,7.41-7.04,13.92-12.25,19.52c-5.22,5.6-11.39,9.98-18.5,13.16c-7.11,3.18-14.83,4.77-23.15,4.77
		c-14.52,0-26.63-4.99-36.31-14.98V292.31z M1738.03,176.35c0-3.63-0.65-7.07-1.93-10.33c-1.29-3.25-3.14-6.09-5.56-8.51
		c-2.42-2.42-5.26-4.35-8.51-5.79c-3.25-1.44-6.77-2.16-10.55-2.16c-3.63,0-7.03,0.68-10.21,2.04c-3.18,1.36-5.94,3.25-8.28,5.67
		c-2.35,2.42-4.24,5.26-5.67,8.51c-1.44,3.25-2.16,6.69-2.16,10.33s0.68,7.03,2.04,10.21c1.36,3.18,3.25,5.94,5.67,8.28
		c2.42,2.35,5.25,4.24,8.51,5.67c3.25,1.44,6.69,2.16,10.33,2.16s7.03-0.68,10.21-2.04c3.18-1.36,5.94-3.25,8.28-5.67
		c2.34-2.42,4.23-5.22,5.67-8.4C1737.31,183.16,1738.03,179.83,1738.03,176.35z"/>
</g>
<g>
	<path d="M658,265.42v166.4h-43.25v-166.4H658z"/>
	<path d="M689.11,318.61h39.94v14.34c5.44-6.62,10.96-11.07,16.55-13.35c5.59-2.28,12.14-3.42,19.64-3.42
		c7.94,0,14.75,1.29,20.41,3.86c5.66,2.58,10.48,6.22,14.46,10.92c3.23,3.83,5.44,8.09,6.62,12.8c1.18,4.71,1.77,10.08,1.77,16.11
		v71.94h-39.94v-57.16c0-5.59-0.41-10.11-1.21-13.57c-0.81-3.46-2.24-6.21-4.3-8.28c-1.77-1.77-3.75-3.01-5.96-3.75
		c-2.21-0.73-4.56-1.1-7.06-1.1c-6.77,0-11.96,2.02-15.56,6.07c-3.61,4.05-5.41,9.82-5.41,17.32v60.47h-39.94V318.61z"/>
	<path d="M910.68,347.74c-7.36-3.82-14.57-5.74-21.63-5.74c-3.68,0-6.66,0.74-8.94,2.21c-2.28,1.47-3.42,3.46-3.42,5.96
		c0,1.32,0.18,2.39,0.55,3.2c0.37,0.81,1.18,1.58,2.43,2.32c1.25,0.74,3.09,1.4,5.52,1.99c2.43,0.59,5.63,1.32,9.6,2.21
		c11.03,2.21,19.27,6.14,24.72,11.81c5.44,5.67,8.17,12.91,8.17,21.74c0,6.62-1.32,12.58-3.97,17.88
		c-2.65,5.3-6.33,9.75-11.03,13.35c-4.71,3.61-10.37,6.4-16.99,8.39c-6.62,1.99-13.9,2.98-21.85,2.98
		c-15.3,0-30.38-4.34-45.24-13.02l14.57-28.25c11.18,7.65,21.77,11.48,31.78,11.48c3.68,0,6.69-0.81,9.05-2.43
		c2.35-1.62,3.53-3.68,3.53-6.18c0-1.47-0.19-2.68-0.55-3.64c-0.37-0.96-1.14-1.84-2.32-2.65c-1.18-0.81-2.91-1.54-5.19-2.21
		c-2.28-0.66-5.26-1.36-8.94-2.1c-12.36-2.5-21-6.21-25.93-11.14c-4.93-4.93-7.39-11.73-7.39-20.41c0-6.32,1.18-12.03,3.53-17.1
		c2.35-5.08,5.74-9.38,10.15-12.91c4.41-3.53,9.75-6.25,16-8.17c6.25-1.91,13.2-2.87,20.86-2.87c12.5,0,24.64,2.43,36.41,7.28
		L910.68,347.74z"/>
	<path d="M995.64,351.93v79.89H955.7v-79.89h-13.24v-33.32h13.24v-33.99h39.94v33.99h22.73v33.32H995.64z"/>
	<path d="M1122.97,318.61h40.17v113.21h-40.17v-12.58c-8.54,10.74-20.08,16.11-34.65,16.11c-8.24,0-15.82-1.51-22.73-4.52
		c-6.92-3.01-12.95-7.25-18.1-12.69c-5.15-5.44-9.16-11.84-12.03-19.2c-2.87-7.36-4.3-15.37-4.3-24.05c0-8.09,1.4-15.78,4.19-23.06
		c2.79-7.28,6.69-13.64,11.7-19.09c5-5.44,10.96-9.74,17.88-12.91c6.91-3.16,14.57-4.75,22.95-4.75c14.12,0,25.82,4.93,35.09,14.79
		V318.61z M1072.66,374.89c0,3.68,0.66,7.1,1.99,10.26c1.32,3.17,3.12,5.92,5.41,8.28c2.28,2.36,5,4.19,8.17,5.52
		c3.16,1.32,6.58,1.99,10.26,1.99c3.53,0,6.88-0.66,10.04-1.99c3.16-1.32,5.88-3.16,8.17-5.52c2.28-2.35,4.12-5.08,5.52-8.17
		c1.4-3.09,2.1-6.4,2.1-9.93c0-3.53-0.7-6.88-2.1-10.04c-1.4-3.16-3.24-5.92-5.52-8.28c-2.28-2.35-5-4.19-8.17-5.52
		c-3.17-1.32-6.51-1.99-10.04-1.99c-3.68,0-7.1,0.66-10.26,1.99c-3.17,1.32-5.89,3.17-8.17,5.52c-2.28,2.35-4.08,5.04-5.41,8.05
		C1073.32,368.08,1072.66,371.36,1072.66,374.89z"/>
	<path d="M1186.53,348.62c0-12.36,2.28-23.87,6.84-34.54c4.56-10.67,10.89-19.97,18.98-27.92c8.09-7.94,17.77-14.16,29.02-18.65
		c11.25-4.49,23.65-6.73,37.19-6.73c13.39,0,25.74,2.24,37.08,6.73c11.33,4.49,21.08,10.7,29.24,18.65
		c8.17,7.94,14.53,17.25,19.09,27.92c4.56,10.67,6.84,22.18,6.84,34.54c0,12.36-2.28,23.87-6.84,34.54
		c-4.56,10.67-10.92,19.97-19.09,27.92c-8.17,7.95-17.91,14.16-29.24,18.65c-11.33,4.49-23.69,6.73-37.08,6.73
		c-13.54,0-25.93-2.25-37.19-6.73s-20.93-10.7-29.02-18.65c-8.09-7.94-14.42-17.25-18.98-27.92
		C1188.81,372.5,1186.53,360.98,1186.53,348.62z M1231.77,348.62c0,6.62,1.25,12.73,3.75,18.32c2.5,5.59,5.88,10.45,10.15,14.57
		c4.26,4.12,9.23,7.32,14.9,9.6c5.66,2.28,11.66,3.42,17.99,3.42c6.32,0,12.32-1.14,17.99-3.42c5.66-2.28,10.67-5.48,15.01-9.6
		c4.34-4.12,7.76-8.97,10.26-14.57c2.5-5.59,3.75-11.7,3.75-18.32c0-6.62-1.25-12.72-3.75-18.32c-2.5-5.59-5.92-10.44-10.26-14.57
		c-4.34-4.12-9.34-7.32-15.01-9.6c-5.67-2.28-11.66-3.42-17.99-3.42c-6.33,0-12.32,1.14-17.99,3.42c-5.67,2.28-10.63,5.48-14.9,9.6
		c-4.27,4.12-7.65,8.98-10.15,14.57C1233.02,335.9,1231.77,342,1231.77,348.62z"/>
	<path d="M1394.42,318.61h39.95v18.54c4.26-6.77,9.49-11.95,15.67-15.56c6.18-3.6,13.39-5.41,21.63-5.41c1.03,0,2.17,0,3.42,0
		c1.25,0,2.68,0.15,4.3,0.44v38.18c-5.3-2.65-11.04-3.97-17.21-3.97c-9.27,0-16.22,2.76-20.86,8.28
		c-4.63,5.52-6.95,13.57-6.95,24.17v48.55h-39.95V318.61z"/>
	<path d="M1585.97,248.65h40.17v183.17h-40.17v-12.58c-8.54,10.74-20.08,16.11-34.65,16.11c-8.24,0-15.82-1.54-22.73-4.63
		c-6.92-3.09-12.95-7.36-18.1-12.8c-5.15-5.44-9.16-11.84-12.03-19.2c-2.87-7.36-4.3-15.3-4.3-23.83c0-8.09,1.36-15.78,4.08-23.06
		c2.72-7.28,6.58-13.64,11.59-19.09c5-5.44,11-9.74,17.99-12.91c6.99-3.16,14.68-4.75,23.06-4.75c14.12,0,25.82,4.93,35.09,14.79
		V248.65z M1535.65,374.89c0,3.68,0.66,7.1,1.99,10.26c1.32,3.17,3.12,5.92,5.41,8.28c2.28,2.36,5,4.19,8.17,5.52
		c3.16,1.32,6.58,1.99,10.26,1.99c3.53,0,6.88-0.66,10.04-1.99c3.16-1.32,5.88-3.16,8.17-5.52c2.28-2.35,4.12-5.08,5.52-8.17
		c1.4-3.09,2.1-6.4,2.1-9.93c0-3.53-0.7-6.88-2.1-10.04c-1.4-3.16-3.24-5.92-5.52-8.28c-2.28-2.35-5-4.19-8.17-5.52
		c-3.17-1.32-6.51-1.99-10.04-1.99s-6.88,0.66-10.04,1.99c-3.17,1.32-5.89,3.17-8.17,5.52c-2.28,2.35-4.12,5.04-5.52,8.05
		C1536.35,368.08,1535.65,371.36,1535.65,374.89z"/>
	<path d="M1689.25,381.95c0,17.21,8.09,25.82,24.28,25.82c8.68,0,15.23-3.53,19.64-10.59h38.62c-7.8,25.9-27.29,38.84-58.48,38.84
		c-9.57,0-18.32-1.43-26.26-4.3c-7.95-2.87-14.75-6.95-20.41-12.25c-5.67-5.3-10.04-11.62-13.13-18.98
		c-3.09-7.36-4.63-15.59-4.63-24.72c0-9.41,1.47-17.91,4.41-25.49c2.94-7.58,7.13-14.01,12.58-19.31
		c5.44-5.3,12.03-9.38,19.75-12.25c7.72-2.87,16.44-4.3,26.15-4.3c9.56,0,18.17,1.43,25.82,4.3c7.65,2.87,14.12,7.03,19.42,12.47
		c5.3,5.45,9.34,12.1,12.14,19.97c2.79,7.87,4.19,16.74,4.19,26.59v4.19H1689.25z M1736.04,358.78c-1.32-5.59-4.05-10.08-8.17-13.46
		c-4.12-3.38-9.12-5.08-15.01-5.08c-6.18,0-11.22,1.62-15.12,4.86c-3.9,3.24-6.37,7.8-7.39,13.68H1736.04z"/>
	<path d="M1796.06,318.61h39.95v18.54c4.26-6.77,9.49-11.95,15.67-15.56c6.18-3.6,13.39-5.41,21.63-5.41c1.03,0,2.17,0,3.42,0
		c1.25,0,2.68,0.15,4.3,0.44v38.18c-5.3-2.65-11.04-3.97-17.21-3.97c-9.27,0-16.22,2.76-20.86,8.28
		c-4.63,5.52-6.95,13.57-6.95,24.17v48.55h-39.95V318.61z"/>
</g>
<g id="icons">
	<g id="cart">
		<path class="st0" d="M303.2,258.39h-79.72c-3.49,0-5.48,2.99-4.98,5.98l6.98,30.89c1,4.48,4.98,7.97,9.96,7.97h55.31
			c4.98,0,8.97-3.49,9.96-7.97l6.98-30.89C308.68,261.38,306.19,258.39,303.2,258.39z M258.36,283.31c0,2.49-1.99,4.98-4.98,4.98
			c-2.99,0-4.98-2.49-4.98-4.98v-9.96c0-2.49,1.99-4.98,4.98-4.98c2.99,0,4.98,2.49,4.98,4.98V283.31z M278.29,283.31
			c0,2.49-1.99,4.98-4.98,4.98s-4.98-2.49-4.98-4.98v-9.96c0-2.49,1.99-4.98,4.98-4.98s4.98,2.49,4.98,4.98V283.31z"/>
		<path class="st0" d="M308.18,233.48h-10.96l-9.47-23.92c-1.99-4.98-7.97-7.47-12.95-5.48c-4.98,1.99-7.47,7.97-5.48,12.95
			l6.48,16.44h-24.91l6.48-16.44c1.99-4.98-0.5-10.96-5.48-12.95c-4.98-1.99-10.96,0.5-12.95,5.48l-9.47,23.92H218.5
			c-5.48,0-9.96,4.48-9.96,9.96v4.98c0,2.99,1.99,4.98,4.98,4.98h99.65c2.99,0,4.98-1.99,4.98-4.98v-4.98
			C318.15,237.97,313.66,233.48,308.18,233.48z"/>
	</g>
</g>
</svg>
